<svg width="37" height="37" viewBox="0 0 37 37" fill="none" xmlns="http://www.w3.org/2000/svg">
<rect x="1" y="1" width="35" height="35" rx="17.5" fill="#3C39EA"/>
<rect x="1" y="1" width="35" height="35" rx="17.5" stroke="#FCFAF7" stroke-width="2"/>
<path d="M19.256 14.26V23.5H17.506V18.684L17.604 15.982H17.576L15.014 23.5H13.432L10.884 15.982H10.856L10.954 18.684V23.5H9.204V14.26H12.004L13.67 19.3L14.258 21.386H14.286L14.888 19.314L16.54 14.26H19.256ZM24.6427 23.64C23.9054 23.64 23.2614 23.4953 22.7107 23.206C22.1694 22.9167 21.7494 22.5013 21.4507 21.96C21.1521 21.4187 21.0027 20.7653 21.0027 20C21.0027 19.2347 21.1521 18.5813 21.4507 18.04C21.7494 17.4987 22.1647 17.0833 22.6967 16.794C23.2381 16.5047 23.8541 16.36 24.5447 16.36C25.2541 16.36 25.8561 16.5047 26.3507 16.794C26.8454 17.074 27.2234 17.4613 27.4847 17.956C27.7461 18.4413 27.8767 18.9967 27.8767 19.622C27.8767 19.8087 27.8721 19.986 27.8627 20.154C27.8534 20.322 27.8394 20.4713 27.8207 20.602H22.2347V19.272H26.9807L26.0567 19.608C26.0567 19.02 25.9214 18.5673 25.6507 18.25C25.3894 17.9327 25.0161 17.774 24.5307 17.774C24.1761 17.774 23.8681 17.858 23.6067 18.026C23.3547 18.194 23.1634 18.446 23.0327 18.782C22.9021 19.1087 22.8367 19.524 22.8367 20.028C22.8367 20.5227 22.9067 20.9333 23.0467 21.26C23.1961 21.5773 23.4014 21.8153 23.6627 21.974C23.9334 22.1327 24.2554 22.212 24.6287 22.212C25.0394 22.212 25.3707 22.1327 25.6227 21.974C25.8747 21.8153 26.0707 21.596 26.2107 21.316L27.7367 21.904C27.5874 22.268 27.3587 22.5807 27.0507 22.842C26.7521 23.1033 26.3927 23.304 25.9727 23.444C25.5621 23.5747 25.1187 23.64 24.6427 23.64Z" fill="white"/>
</svg>
